<svg viewBox="0 0 230.52 243.24" xmlns="http://www.w3.org/2000/svg"><path fill="#ef0" d="M216.65,173.09c-15.47,18.94-42.61,33.06-75.01,38.1-8.3,1.49-17.16,2.3-26.37,2.3v29.74c63.66,0,115.26-34.28,115.26-76.57,0-5.14-.77-10.16-2.22-15.02-2.28,7.61-6.25,14.82-11.66,21.44Z"/><path fill="#ef0" d="M31.6,159.27c-5.48-3.84-10.37-8.06-14.57-12.6-.67-.73-1.33-1.46-1.97-2.21-2.17-2.52-4.12-5.14-5.85-7.83-3.07-4.78-5.42-9.8-6.98-15.02-1.45,4.86-2.22,9.88-2.22,15.02s.77,10.16,2.22,15.02c2.28,7.61,6.25,14.82,11.66,21.44,15.47,18.94,42.61,33.06,75.01,38.1,8.47,1.32,17.3,2.3,26.37,2.3v-30.32c-32.95,0-62.66-9.18-83.67-23.91Z"/><path fill="#ef0" d="M213.5,146.68c.67-.73,1.33-1.46,1.97-2.21,2.17-2.52,4.12-5.14,5.85-7.83,3.07-4.78,5.42-9.8,6.98-15.02,1.45-4.86,2.22-9.88,2.22-15.02s-.77-10.16-2.22-15.02c-10.23-34.18-54.71-60.16-108.67-61.5-.02,0-.04,0-.06,0-1.43-.04-2.86-.06-4.31-.06v30.03c1.39,0,2.76.04,4.13.07,32.98.87,61.01,12.05,73.6,27.8.67.84,1.31,1.68,1.89,2.55,3.38,5.02,5.23,10.44,5.23,16.1,0,2.54-.39,5.04-1.1,7.47-.64,2.16-1.53,4.27-2.69,6.32-5.41-5.35-11.73-10.15-18.79-14.27-17.21-10.04-38.81-16.01-62.26-16.01v30.36c2.74,0,5.45.08,8.13.22,22.53,1.17,42.48,7.18,56.38,16.11-15.56,9.99-38.68,16.32-64.52,16.32v30.07c32.95,0,62.66-9.18,83.67-23.91,5.48-3.84,10.37-8.06,14.57-12.6Z"/><path fill="#ef0" d="M107.13,120.24c-21.38-1.1-40.42-6.06-54.13-14.13,17.21-10.04,38.81-16.01,62.26-16.01v-30.03c-1.12,0-2.23.02-3.33.05-29.94.74-56.58,11.41-74.4,27.82-.74.68-1.47,1.38-2.18,2.09-1.32-2.1-2.36-4.27-3.1-6.5-.87-2.62-1.35-5.31-1.35-8.06,0-24.3,35.43-44.14,80-45.37.02,0,.04,0,.06,0,1.43-.03,2.86-.06,4.31-.06V0C51.61,0,0,34.28,0,76.57c0,5.14.77,10.16,2.22,15.02,1.56,5.22,3.92,10.24,6.98,15.02,2.42,3.76,5.28,7.37,8.54,10.8,1.37,1.44,2.81,2.85,4.31,4.22,1.98,1.81,4.07,3.55,6.28,5.24,5.81,4.43,12.38,8.41,19.56,11.85,18.95,9.08,42.22,14.4,67.37,14.4v-32.65c-2.74,0-5.45-.08-8.13-.21Z"/></svg>
